<?xml version="1.0" encoding="utf-8"?>
<!-- Generator: Adobe Illustrator 26.5.0, SVG Export Plug-In . SVG Version: 6.00 Build 0)  -->
<svg version="1.1" id="katman_1" xmlns="http://www.w3.org/2000/svg" xmlns:xlink="http://www.w3.org/1999/xlink" x="0px" y="0px"
	 viewBox="0 0 256 256" style="enable-background:new 0 0 256 256;" xml:space="preserve">
<style type="text/css">
	.st0{fill:none;stroke:#000000;stroke-width:6;stroke-miterlimit:10;}
	.st1{fill:none;stroke:url(#SVGID_1_);stroke-width:9;stroke-miterlimit:10;}
</style>
<g>
	<path class="st0" d="M22.9,148.9c0,0-0.4-55.2-18.5-72.7c-1.5-1.5-0.3-4,1.8-3.7c13.4,1.9,38.5,8.8,51,33.6"/>
	<path class="st0" d="M141.1,157.5v-7.6c23.2,71.3,101.7,8.2,110.6-0.1c0.5-0.5,0.5-1.3,0-1.8C140.5,38,46.7,131.8,46.7,131.8"/>
	<linearGradient id="SVGID_1_" gradientUnits="userSpaceOnUse" x1="158.2092" y1="148.9326" x2="158.2092" y2="148.9326">
		<stop  offset="0" style="stop-color:#0071BC"/>
		<stop  offset="1" style="stop-color:#2E3192"/>
	</linearGradient>
	<path class="st1" d="M158.2,148.9"/>
	<path d="M214.5,138.2l-6.8-3.9c-1.7-1-3.8,0.2-3.8,2.2v7.9c0,1.9,2.1,3.1,3.8,2.2l6.8-3.9C216.2,141.6,216.2,139.1,214.5,138.2z"/>
</g>
</svg>
